<?xml version="1.0" encoding="UTF-8"?>
<svg xmlns="http://www.w3.org/2000/svg" xmlns:svgjs="http://svgjs.com/svgjs" xmlns:xlink="http://www.w3.org/1999/xlink" version="1.1" height="100%" width="100%" viewBox="0 0 300 300">
   <g id="svg-container" transform="matrix(5.18,0,0,5.18,-6.722843894958487,71.08010272979737)">
      <g id="symbols" transform="matrix(2.6000002772630935,0,0,2.6000002772630935,5.159638326815964,4.8718491508482575)">
         <svg version="1.0" viewBox="0 0 1500 1500" data-external-asset-id="426439" width="8.580340789486755" height="8.580340789486755" id="symbols_0" fill="#aeddff">
            <path d="M278.5 26.2c-4.8 14.5-65.8 199.3-135.6 410.6C73 648.2 16 821.4 16.3 821.6c.6.7 544.6 2.9 545.2 2.2C562.2 823.1 288.8 0 287.8 0c-.4 0-4.6 11.8-9.3 26.2zM343.4 7.6c.4 1.1 38.1 117.9 83.9 259.6 45.7 141.7 83.6 257.8 84 257.9.8.1 689.5-509.5 695.6-514.7l2.5-2.1-136-.7c-74.7-.3-269.7-.9-433.3-1.2-291-.7-297.3-.6-296.7 1.2zM1004.6 212.3c-119.8 89.2-217.9 162.6-218 163.2-.1 1.3 712.8 495.4 713.3 494.3.5-1.5-275.3-819.8-276.4-819.7-.5 0-99 73-218.9 162.2zM1002 580.7c-90.1 289.1-254.6 819.9-254 820.1.6.2 695.2-504.9 698.8-508.2 1-1-45.3-34.9-213.5-156.7-118.1-85.4-217.7-157.6-221.5-160.2l-6.7-4.8-3.1 9.8zM295.6 870.2C133.4 870.6.4 871.3.1 871.5c-.2.3.4 1.2 1.5 1.9 1 .8 158 117.1 348.9 258.4 190.9 141.4 347.3 256.8 347.6 256.4.5-.5 160.9-496.7 166.5-515l1.3-4.2-137.7.2c-75.7.1-270.4.5-432.6 1z" />
         </svg>
      </g>
   </g>
</svg>

